<?xml version="1.0" encoding="UTF-8" standalone="no"?>
<!DOCTYPE svg PUBLIC "-//W3C//DTD SVG 1.0//EN" "http://www.w3.org/TR/2001/PR-SVG-20010719/DTD/svg10.dtd">
<svg viewBox="-192 332 620 909" xmlns="http://www.w3.org/2000/svg" xmlns:xlink="http://www.w3.org/1999/xlink">
  <ellipse style="fill: #000000" cx="81.0578" cy="343.876" rx="10" ry="10"/>
  <g>
    <polyline style="fill: none; fill-opacity:0; stroke-width: 2; stroke: #000000" points="81.0578,353.876 81.0578,363.876 81.0578,403.876 81.0578,409.404 "/>
    <polyline style="fill: none; fill-opacity:0; stroke-width: 2; stroke: #000000" points="76.0578,401.64 81.0578,411.64 86.0578,401.64 "/>
  </g>
  <g>
    <ellipse style="fill: #ffffff" cx="-98.4632" cy="530.242" rx="15" ry="15"/>
    <ellipse style="fill: none; fill-opacity:0; stroke-width: 2; stroke: #000000" cx="-98.4632" cy="530.242" rx="15" ry="15"/>
    <ellipse style="fill: #000000" cx="-98.4632" cy="530.242" rx="10" ry="10"/>
  </g>
  <g>
    <polyline style="fill: none; fill-opacity:0; stroke-width: 2; stroke: #000000" points="-98.4632,654.081 -98.4632,600.242 -98.4632,600.242 -98.4632,550.719 "/>
    <polyline style="fill: none; fill-opacity:0; stroke-width: 2; stroke: #000000" points="-93.4632,558.483 -98.4632,548.483 -103.463,558.483 "/>
  </g>
  <g>
    <polygon style="fill: #ffffff" points="61.0578,673.082 81.0578,653.082 101.058,673.082 81.0578,693.082 "/>
    <polygon style="fill: none; fill-opacity:0; stroke-width: 2; stroke: #000000" points="61.0578,673.082 81.0578,653.082 101.058,673.082 81.0578,693.082 "/>
  </g>
  <g>
    <polyline style="fill: none; fill-opacity:0; stroke-width: 2; stroke: #000000" points="81.0578,449.876 81.0578,471.876 81.0578,471.876 81.0578,489.404 "/>
    <polyline style="fill: none; fill-opacity:0; stroke-width: 2; stroke: #000000" points="76.0578,481.64 81.0578,491.64 86.0578,481.64 "/>
  </g>
  <g>
    <polyline style="fill: none; fill-opacity:0; stroke-width: 2; stroke: #000000" points="81.0578,529.876 81.0578,551.876 81.0578,551.876 81.0578,569.404 "/>
    <polyline style="fill: none; fill-opacity:0; stroke-width: 2; stroke: #000000" points="76.0578,561.64 81.0578,571.64 86.0578,561.64 "/>
  </g>
  <g>
    <polyline style="fill: none; fill-opacity:0; stroke-width: 2; stroke: #000000" points="81.0578,609.876 81.0578,619.876 81.0578,643.082 81.0578,648.61 "/>
    <polyline style="fill: none; fill-opacity:0; stroke-width: 2; stroke: #000000" points="76.0578,640.846 81.0578,650.846 86.0578,640.846 "/>
  </g>
  <g>
    <polyline style="fill: none; fill-opacity:0; stroke-width: 2; stroke: #ff0000" points="61.0578,673.082 20.3166,673.082 20.3166,673.082 -23.2191,673.082 "/>
    <polyline style="fill: none; fill-opacity:0; stroke-width: 2; stroke: #ff0000" points="-15.4551,668.082 -25.4551,673.082 -15.4551,678.082 "/>
    <text font-size="12.7998" style="fill: #000000;text-anchor:middle;font-family:sans-serif;font-style:normal;font-weight:normal" x="-9.73468" y="648.17">[fatal problems found]</text>
  </g>
  <g>
    <polyline style="fill: none; fill-opacity:0; stroke-width: 2; stroke: #00ff00" points="101.058,673.082 131.436,673.082 131.436,673.083 155.564,673.083 "/>
    <polyline style="fill: none; fill-opacity:0; stroke-width: 2; stroke: #00ff00" points="147.8,678.083 157.8,673.083 147.8,668.083 "/>
    <text font-size="12.7998" style="fill: #000000;text-anchor:middle;font-family:sans-serif;font-style:normal;font-weight:normal" x="171.305" y="648.563">[no problems found]</text>
  </g>
  <g>
    <polyline style="fill: none; fill-opacity:0; stroke-width: 2; stroke: #000000" points="278.811,691.083 278.811,711.993 278.826,711.993 278.826,728.432 "/>
    <polyline style="fill: none; fill-opacity:0; stroke-width: 2; stroke: #000000" points="273.826,720.668 278.826,730.668 283.826,720.668 "/>
  </g>
  <g>
    <polyline style="fill: none; fill-opacity:0; stroke-width: 2; stroke: #000000" points="278.826,768.904 278.826,791.286 278.757,791.286 278.757,809.196 "/>
    <polyline style="fill: none; fill-opacity:0; stroke-width: 2; stroke: #000000" points="273.757,801.432 278.757,811.432 283.757,801.432 "/>
  </g>
  <g>
    <polygon style="fill: #ffffff" points="258.46,1045.88 278.46,1025.88 298.46,1045.88 278.46,1065.88 "/>
    <polygon style="fill: none; fill-opacity:0; stroke-width: 2; stroke: #000000" points="258.46,1045.88 278.46,1025.88 298.46,1045.88 278.46,1065.88 "/>
  </g>
  <g>
    <polyline style="fill: none; fill-opacity:0; stroke-width: 2; stroke: #000000" points="278.757,865.668 278.757,889.772 278.46,889.772 278.46,909.404 "/>
    <polyline style="fill: none; fill-opacity:0; stroke-width: 2; stroke: #000000" points="273.46,901.64 278.46,911.64 283.46,901.64 "/>
  </g>
  <g>
    <rect style="fill: #ffffff" x="27.2828" y="573.876" width="107.55" height="36" rx="20" ry="20"/>
    <rect style="fill: none; fill-opacity:0; stroke-width: 2; stroke: #000000" x="27.2828" y="573.876" width="107.55" height="36" rx="20" ry="20"/>
    <text font-size="12.8" style="fill: #000000;text-anchor:middle;font-family:sans-serif;font-style:normal;font-weight:normal" x="81.0578" y="595.776">
      <tspan x="81.0578" y="595.776">Run self-tests</tspan>
    </text>
  </g>
  <g>
    <rect style="fill: #ffffff" x="11.8578" y="493.876" width="138.4" height="36" rx="20" ry="20"/>
    <rect style="fill: none; fill-opacity:0; stroke-width: 2; stroke: #000000" x="11.8578" y="493.876" width="138.4" height="36" rx="20" ry="20"/>
    <text font-size="12.8" style="fill: #000000;text-anchor:middle;font-family:sans-serif;font-style:normal;font-weight:normal" x="81.0578" y="515.776">
      <tspan x="81.0578" y="515.776">Initialize hardware</tspan>
    </text>
  </g>
  <g>
    <rect style="fill: #ffffff" x="40.3578" y="413.876" width="81.4" height="36" rx="20" ry="20"/>
    <rect style="fill: none; fill-opacity:0; stroke-width: 2; stroke: #000000" x="40.3578" y="413.876" width="81.4" height="36" rx="20" ry="20"/>
    <text font-size="12.8" style="fill: #000000;text-anchor:middle;font-family:sans-serif;font-style:normal;font-weight:normal" x="81.0578" y="435.776">
      <tspan x="81.0578" y="435.776">Power On</tspan>
    </text>
  </g>
  <g>
    <rect style="fill: #ffff00" x="160.036" y="655.083" width="237.55" height="36" rx="20" ry="20"/>
    <rect style="fill: none; fill-opacity:0; stroke-width: 2; stroke: #000000" x="160.036" y="655.083" width="237.55" height="36" rx="20" ry="20"/>
    <text font-size="12.8" style="fill: #000000;text-anchor:middle;font-family:sans-serif;font-style:normal;font-weight:normal" x="278.811" y="676.983">
      <tspan x="278.811" y="676.983">Discover built-in bootable devices</tspan>
    </text>
  </g>
  <g>
    <rect style="fill: #ffff00" x="198.326" y="732.904" width="161" height="36" rx="20" ry="20"/>
    <rect style="fill: none; fill-opacity:0; stroke-width: 2; stroke: #000000" x="198.326" y="732.904" width="161" height="36" rx="20" ry="20"/>
    <text font-size="12.8" style="fill: #000000;text-anchor:middle;font-family:sans-serif;font-style:normal;font-weight:normal" x="278.826" y="754.804">
      <tspan x="278.826" y="754.804">Discover option ROMs</tspan>
    </text>
  </g>
  <g>
    <rect style="fill: #ffffff" x="189.357" y="813.668" width="178.8" height="52" rx="20" ry="20"/>
    <rect style="fill: none; fill-opacity:0; stroke-width: 2; stroke: #000000" x="189.357" y="813.668" width="178.8" height="52" rx="20" ry="20"/>
    <text font-size="12.8" style="fill: #000000;text-anchor:middle;font-family:sans-serif;font-style:normal;font-weight:normal" x="278.757" y="835.568">
      <tspan x="278.757" y="835.568">Start first boot service in</tspan>
      <tspan x="278.757" y="851.568">BIOS boot services list</tspan>
    </text>
  </g>
  <g>
    <polyline style="fill: none; fill-opacity:0; stroke-width: 2; stroke: #00ff00" points="278.46,1065.88 278.46,1089.88 278.459,1089.88 278.459,1109.4 "/>
    <polyline style="fill: none; fill-opacity:0; stroke-width: 2; stroke: #00ff00" points="273.459,1101.64 278.459,1111.64 283.459,1101.64 "/>
    <text font-size="12.7998" style="fill: #000000;text-anchor:middle;font-family:sans-serif;font-style:normal;font-weight:normal" x="200.624" y="1093.48">[boot program found]</text>
  </g>
  <g>
    <rect style="fill: #ffffff" x="206.884" y="1113.88" width="143.15" height="36" rx="20" ry="20"/>
    <rect style="fill: none; fill-opacity:0; stroke-width: 2; stroke: #000000" x="206.884" y="1113.88" width="143.15" height="36" rx="20" ry="20"/>
    <text font-size="12.8" style="fill: #000000;text-anchor:middle;font-family:sans-serif;font-style:normal;font-weight:normal" x="278.459" y="1135.78">
      <tspan x="278.459" y="1135.78">Start boot program</tspan>
    </text>
  </g>
  <g>
    <rect style="fill: #ffffff" x="-190.688" y="1019.88" width="184.45" height="52" rx="20" ry="20"/>
    <rect style="fill: none; fill-opacity:0; stroke-width: 2; stroke: #000000" x="-190.688" y="1019.88" width="184.45" height="52" rx="20" ry="20"/>
    <text font-size="12.8" style="fill: #000000;text-anchor:middle;font-family:sans-serif;font-style:normal;font-weight:normal" x="-98.4632" y="1041.78">
      <tspan x="-98.4632" y="1041.78">Remove first boot service</tspan>
      <tspan x="-98.4632" y="1057.78">or put at bottom of list</tspan>
    </text>
  </g>
  <g>
    <polyline style="fill: none; fill-opacity:0; stroke-width: 2; stroke: #ff0000" points="258.46,1045.88 248.46,1045.88 3.7618,1045.88 -1.76606,1045.88 "/>
    <polyline style="fill: none; fill-opacity:0; stroke-width: 2; stroke: #ff0000" points="5.99787,1040.88 -4.00213,1045.88 5.99787,1050.88 "/>
    <text font-size="12.7998" style="fill: #000000;text-anchor:middle;font-family:sans-serif;font-style:normal;font-weight:normal" x="126.179" y="1031.32">[boot program not found]</text>
  </g>
  <g>
    <rect style="fill: #ffffff" x="-169.238" y="913.876" width="141.55" height="52" rx="20" ry="20"/>
    <rect style="fill: none; fill-opacity:0; stroke-width: 2; stroke: #000000" x="-169.238" y="913.876" width="141.55" height="52" rx="20" ry="20"/>
    <text font-size="12.8" style="fill: #000000;text-anchor:middle;font-family:sans-serif;font-style:normal;font-weight:normal" x="-98.4632" y="935.776">
      <tspan x="-98.4632" y="935.776">More boot services</tspan>
      <tspan x="-98.4632" y="951.776">available?</tspan>
    </text>
  </g>
  <g>
    <polyline style="fill: none; fill-opacity:0; stroke-width: 2; stroke: #000000" points="-98.4632,1019.88 -98.4632,1009.88 -98.4632,975.876 -98.4632,970.348 "/>
    <polyline style="fill: none; fill-opacity:0; stroke-width: 2; stroke: #000000" points="-93.4632,978.112 -98.4632,968.112 -103.463,978.112 "/>
  </g>
  <g>
    <polygon style="fill: #ffffff" points="-118.463,839.668 -98.4632,819.668 -78.4632,839.668 -98.4632,859.668 "/>
    <polygon style="fill: none; fill-opacity:0; stroke-width: 2; stroke: #000000" points="-118.463,839.668 -98.4632,819.668 -78.4632,839.668 -98.4632,859.668 "/>
  </g>
  <g>
    <polyline style="fill: none; fill-opacity:0; stroke-width: 2; stroke: #000000" points="-98.4632,913.876 -98.4632,903.876 -98.4632,869.668 -98.4632,864.14 "/>
    <polyline style="fill: none; fill-opacity:0; stroke-width: 2; stroke: #000000" points="-93.4632,871.904 -98.4632,861.904 -103.463,871.904 "/>
  </g>
  <g>
    <polyline style="fill: none; fill-opacity:0; stroke-width: 2; stroke: #00ff00" points="-78.4632,839.668 -68.4632,839.668 179.357,839.668 184.885,839.668 "/>
    <polyline style="fill: none; fill-opacity:0; stroke-width: 2; stroke: #00ff00" points="177.121,844.668 187.121,839.668 177.121,834.668 "/>
    <text font-size="12.7998" style="fill: #000000;text-anchor:middle;font-family:sans-serif;font-style:normal;font-weight:normal" x="45.4468" y="829.668">[yes]</text>
  </g>
  <g>
    <polyline style="fill: none; fill-opacity:0; stroke-width: 2; stroke: #ff0000" points="-98.4632,819.668 -98.4632,809.668 -98.4632,702.091 -98.4632,696.563 "/>
    <polyline style="fill: none; fill-opacity:0; stroke-width: 2; stroke: #ff0000" points="-93.4632,704.327 -98.4632,694.327 -103.463,704.327 "/>
    <text font-size="12.7998" style="fill: #000000;text-anchor:middle;font-family:sans-serif;font-style:normal;font-weight:normal" x="-117.688" y="762.876">[no]</text>
  </g>
  <g>
    <rect style="fill: #c8c8ff" x="164.885" y="913.876" width="227.15" height="52" rx="20" ry="20"/>
    <rect style="fill: none; fill-opacity:0; stroke-width: 2; stroke: #000000" x="164.885" y="913.876" width="227.15" height="52" rx="20" ry="20"/>
    <text font-size="12.8" style="fill: #000000;text-anchor:middle;font-family:sans-serif;font-style:normal;font-weight:normal" x="278.46" y="935.776">
      <tspan x="278.46" y="935.776">Boot service performs discovery</tspan>
      <tspan x="278.46" y="951.776">for boot program </tspan>
    </text>
  </g>
  <g>
    <polyline style="fill: none; fill-opacity:0; stroke-width: 2; stroke: #000000" points="278.46,965.876 278.46,975.876 278.46,1015.88 278.46,1021.4 "/>
    <polyline style="fill: none; fill-opacity:0; stroke-width: 2; stroke: #000000" points="273.46,1013.64 278.46,1023.64 283.46,1013.64 "/>
  </g>
  <g>
    <rect style="fill: #ffffff" x="-168.238" y="655.082" width="139.55" height="36" rx="10" ry="10"/>
    <rect style="fill: none; fill-opacity:0; stroke-width: 2; stroke: #000000" x="-168.238" y="655.082" width="139.55" height="36" rx="10" ry="10"/>
    <text font-size="12.8" style="fill: #000000;text-anchor:middle;font-family:sans-serif;font-style:normal;font-weight:normal" x="-98.4632" y="676.982">
      <tspan x="-98.4632" y="676.982">Computer stopped</tspan>
    </text>
  </g>
  <g>
    <rect style="fill: #ffffff" x="0.107817" y="1201.97" width="161.9" height="36" rx="10" ry="10"/>
    <rect style="fill: none; fill-opacity:0; stroke-width: 2; stroke: #000000" x="0.107817" y="1201.97" width="161.9" height="36" rx="10" ry="10"/>
    <text font-size="12.8" style="fill: #000000;text-anchor:middle;font-family:sans-serif;font-style:normal;font-weight:normal" x="81.0578" y="1223.87">
      <tspan x="81.0578" y="1223.87">Boot program running</tspan>
    </text>
  </g>
  <g>
    <polyline style="fill: none; fill-opacity:0; stroke-width: 2; stroke: #00ff00" points="258.46,1219.97 210.736,1219.97 210.736,1219.97 167.481,1219.97 "/>
    <polyline style="fill: none; fill-opacity:0; stroke-width: 2; stroke: #00ff00" points="175.245,1214.97 165.245,1219.97 175.245,1224.97 "/>
    <text font-size="12.7998" style="fill: #000000;text-anchor:middle;font-family:sans-serif;font-style:normal;font-weight:normal" x="212.853" y="1206.32">[started]</text>
  </g>
  <g>
    <ellipse style="fill: #ffffff" cx="-96.6882" cy="1219.97" rx="15" ry="15"/>
    <ellipse style="fill: none; fill-opacity:0; stroke-width: 2; stroke: #000000" cx="-96.6882" cy="1219.97" rx="15" ry="15"/>
    <ellipse style="fill: #000000" cx="-96.6882" cy="1219.97" rx="10" ry="10"/>
  </g>
  <g>
    <polyline style="fill: none; fill-opacity:0; stroke-width: 2; stroke: #000000" points="0.107817,1219.97 -9.89218,1219.97 -70.6804,1219.97 -76.2083,1219.97 "/>
    <polyline style="fill: none; fill-opacity:0; stroke-width: 2; stroke: #000000" points="-68.4443,1214.97 -78.4443,1219.97 -68.4443,1224.97 "/>
  </g>
  <g>
    <polyline style="fill: none; fill-opacity:0; stroke-width: 2; stroke: #ff0000" points="298.46,1219.97 422.035,1219.97 422.035,939.876 396.507,939.876 "/>
    <polyline style="fill: none; fill-opacity:0; stroke-width: 2; stroke: #ff0000" points="404.271,934.876 394.271,939.876 404.271,944.876 "/>
    <text font-size="12.7998" style="fill: #000000;text-anchor:middle;font-family:sans-serif;font-style:normal;font-weight:normal" x="357.937" y="1206.32">[program returned]</text>
  </g>
  <g>
    <polygon style="fill: #ffffff" points="258.46,1219.97 278.46,1199.97 298.46,1219.97 278.46,1239.97 "/>
    <polygon style="fill: none; fill-opacity:0; stroke-width: 2; stroke: #000000" points="258.46,1219.97 278.46,1199.97 298.46,1219.97 278.46,1239.97 "/>
  </g>
  <g>
    <polyline style="fill: none; fill-opacity:0; stroke-width: 2; stroke: #000000" points="278.459,1149.88 278.459,1174.93 278.46,1174.93 278.46,1195.5 "/>
    <polyline style="fill: none; fill-opacity:0; stroke-width: 2; stroke: #000000" points="273.46,1187.74 278.46,1197.74 283.46,1187.74 "/>
  </g>
</svg>
