<!DOCTYPE svg PUBLIC "-//W3C//DTD SVG 1.1//EN"
 "http://www.w3.org/Graphics/SVG/1.1/DTD/svg11.dtd">
<svg version="1.1"
 viewBox="0 0 600 531"
 xmlns="http://www.w3.org/2000/svg" shape-rendering="crispEdges"
 stroke-width="1" text-rendering="geometricPrecision">
<polygon fill="white" points="84,7 114,7 114,16 84,16"/>
<text x="100" y="16" textLength="28" font-family="Helvetica" font-size="12" fill="black" text-anchor="middle">

client
</text>
<polygon fill="white" points="280,7 318,7 318,16 280,16"/>
<text x="300" y="16" textLength="36" font-family="Helvetica" font-size="12" fill="black" text-anchor="middle">

tftp srv
</text>
<polygon fill="white" points="474,7 524,7 524,16 474,16"/>
<text x="500" y="16" textLength="49" font-family="Helvetica" font-size="12" fill="black" text-anchor="middle">

bootp srv
</text>
<line x1="100" y1="22" x2="100" y2="48" stroke="black"/>
<line x1="300" y1="22" x2="300" y2="48" stroke="black"/>
<line x1="500" y1="22" x2="500" y2="48" stroke="black"/>
<line x1="100" y1="48" x2="100" y2="85" stroke="black"/>
<line x1="300" y1="48" x2="300" y2="85" stroke="black"/>
<line x1="500" y1="48" x2="500" y2="85" stroke="black"/>
<line x1="100" y1="59" x2="500" y2="68" stroke="black"/>
<line x1="500" y1="68" x2="490" y2="74" stroke="black"/>
<polygon fill="white" points="262,53 337,53 337,62 262,62"/>
<text x="263" y="62" textLength="73" font-family="Helvetica" font-size="12" fill="black">
bootp request
</text>
<line x1="100" y1="85" x2="100" y2="122" stroke="black"/>
<line x1="300" y1="85" x2="300" y2="122" stroke="black"/>
<line x1="500" y1="85" x2="500" y2="122" stroke="black"/>
<line x1="500" y1="96" x2="100" y2="105" stroke="black"/>
<line x1="100" y1="105" x2="110" y2="111" stroke="black"/>
<polygon fill="white" points="269,90 330,90 330,99 269,99"/>
<text x="270" y="99" textLength="59" font-family="Helvetica" font-size="12" fill="black">
bootp reply
</text>
<line x1="100" y1="122" x2="100" y2="148" stroke="black"/>
<line x1="300" y1="122" x2="300" y2="148" stroke="black"/>
<line x1="500" y1="122" x2="500" y2="148" stroke="black"/>
<line x1="100" y1="148" x2="100" y2="174" stroke="black"/>
<line x1="300" y1="148" x2="300" y2="174" stroke="black"/>
<line x1="500" y1="148" x2="500" y2="174" stroke="black"/>
<line x1="100" y1="174" x2="100" y2="211" stroke="black"/>
<line x1="300" y1="174" x2="300" y2="211" stroke="black"/>
<line x1="500" y1="174" x2="500" y2="211" stroke="black"/>
<line x1="100" y1="185" x2="300" y2="194" stroke="black"/>
<line x1="300" y1="194" x2="290" y2="200" stroke="black"/>
<polygon fill="white" points="168,179 230,179 230,188 168,188"/>
<text x="169" y="188" textLength="60" font-family="Helvetica" font-size="12" fill="black">
tftp request
</text>
<line x1="100" y1="211" x2="100" y2="248" stroke="black"/>
<line x1="300" y1="211" x2="300" y2="248" stroke="black"/>
<line x1="500" y1="211" x2="500" y2="248" stroke="black"/>
<line x1="300" y1="222" x2="100" y2="231" stroke="black"/>
<line x1="100" y1="231" x2="110" y2="237" stroke="black"/>
<polygon fill="white" points="159,216 239,216 239,225 159,225"/>
<text x="160" y="225" textLength="78" font-family="Helvetica" font-size="12" fill="black">
first tftp packet
</text>
<line x1="100" y1="248" x2="100" y2="285" stroke="black"/>
<line x1="300" y1="248" x2="300" y2="285" stroke="black"/>
<line x1="500" y1="248" x2="500" y2="285" stroke="black"/>
<line x1="100" y1="259" x2="300" y2="268" stroke="black"/>
<line x1="300" y1="268" x2="290" y2="274" stroke="black"/>
<polygon fill="white" points="138,253 261,253 261,262 138,262"/>
<text x="139" y="262" textLength="121" font-family="Helvetica" font-size="12" fill="black">
request second packet
</text>
<line x1="100" y1="285" x2="100" y2="322" stroke="black"/>
<line x1="300" y1="285" x2="300" y2="322" stroke="black"/>
<line x1="500" y1="285" x2="500" y2="322" stroke="black"/>
<line x1="300" y1="296" x2="100" y2="305" stroke="black"/>
<line x1="100" y1="305" x2="110" y2="311" stroke="black"/>
<polygon fill="white" points="150,290 249,290 249,299 150,299"/>
<text x="151" y="299" textLength="97" font-family="Helvetica" font-size="12" fill="black">
second tftp packet
</text>
<line x1="100" y1="322" x2="100" y2="348" stroke="black" stroke-dasharray="2,2"/>
<line x1="300" y1="322" x2="300" y2="348" stroke="black" stroke-dasharray="2,2"/>
<line x1="500" y1="322" x2="500" y2="348" stroke="black" stroke-dasharray="2,2"/>
<line x1="100" y1="348" x2="100" y2="374" stroke="black" stroke-dasharray="2,2"/>
<line x1="300" y1="348" x2="300" y2="374" stroke="black" stroke-dasharray="2,2"/>
<line x1="500" y1="348" x2="500" y2="374" stroke="black" stroke-dasharray="2,2"/>
<line x1="100" y1="374" x2="100" y2="411" stroke="black"/>
<line x1="300" y1="374" x2="300" y2="411" stroke="black"/>
<line x1="500" y1="374" x2="500" y2="411" stroke="black"/>
<line x1="100" y1="385" x2="300" y2="394" stroke="black"/>
<line x1="300" y1="394" x2="290" y2="400" stroke="black"/>
<polygon fill="white" points="146,379 253,379 253,388 146,388"/>
<text x="147" y="388" textLength="105" font-family="Helvetica" font-size="12" fill="black">
request next packet
</text>
<line x1="100" y1="411" x2="100" y2="448" stroke="black"/>
<line x1="300" y1="411" x2="300" y2="448" stroke="black"/>
<line x1="500" y1="411" x2="500" y2="448" stroke="black"/>
<line x1="300" y1="422" x2="100" y2="431" stroke="black"/>
<line x1="100" y1="431" x2="110" y2="437" stroke="black"/>
<polygon fill="white" points="158,416 241,416 241,425 158,425"/>
<text x="159" y="425" textLength="81" font-family="Helvetica" font-size="12" fill="black">
next tftp packet
</text>
<line x1="100" y1="448" x2="100" y2="485" stroke="black"/>
<line x1="300" y1="448" x2="300" y2="485" stroke="black"/>
<line x1="500" y1="448" x2="500" y2="485" stroke="black"/>
<line x1="100" y1="459" x2="300" y2="468" stroke="black"/>
<line x1="300" y1="468" x2="290" y2="474" stroke="black"/>
<polygon fill="white" points="146,453 253,453 253,462 146,462"/>
<text x="147" y="462" textLength="105" font-family="Helvetica" font-size="12" fill="black">
request next packet
</text>
<line x1="100" y1="485" x2="100" y2="522" stroke="black"/>
<line x1="300" y1="485" x2="300" y2="522" stroke="black"/>
<line x1="500" y1="485" x2="500" y2="522" stroke="black"/>
<line x1="300" y1="496" x2="100" y2="505" stroke="black"/>
<line x1="100" y1="505" x2="110" y2="511" stroke="black"/>
<polygon fill="white" points="160,490 239,490 239,499 160,499"/>
<text x="161" y="499" textLength="77" font-family="Helvetica" font-size="12" fill="black">
last tftp packet
</text>
<line x1="100" y1="507" x2="100" y2="531" stroke="black"/>
<line x1="300" y1="507" x2="300" y2="531" stroke="black"/>
<line x1="500" y1="507" x2="500" y2="531" stroke="black"/>
</svg>
