<?xml version="1.0" encoding="UTF-8" standalone="no"?>
<!-- Created with Inkscape (http://www.inkscape.org/) -->

<svg
   xmlns:dc="http://purl.org/dc/elements/1.1/"
   xmlns:cc="http://creativecommons.org/ns#"
   xmlns:rdf="http://www.w3.org/1999/02/22-rdf-syntax-ns#"
   xmlns:svg="http://www.w3.org/2000/svg"
   xmlns="http://www.w3.org/2000/svg"
   version="1.1"
   viewBox="0 0 512 512"
   id="svg2">
  <metadata
     id="metadata27">
    <rdf:RDF>
      <cc:Work
         rdf:about="">
        <dc:format>image/svg+xml</dc:format>
        <dc:type
           rdf:resource="http://purl.org/dc/dcmitype/StillImage" />
        <dc:title></dc:title>
        <cc:license
           rdf:resource="http://creativecommons.org/licenses/publicdomain/" />
      </cc:Work>
      <cc:License
         rdf:about="http://creativecommons.org/licenses/publicdomain/">
        <cc:permits
           rdf:resource="http://creativecommons.org/ns#Reproduction" />
        <cc:permits
           rdf:resource="http://creativecommons.org/ns#Distribution" />
        <cc:permits
           rdf:resource="http://creativecommons.org/ns#DerivativeWorks" />
      </cc:License>
    </rdf:RDF>
  </metadata>
  <defs
     id="defs25" />
  <path
     d="m 47.660183,97.261071 c -7.385263,14.978999 32.810132,-25.22589 32.810132,-25.22589 0,0 8.73269,-9.714364 32.402685,-19.512116 23.66999,-9.797752 49.5857,-10.821119 49.5857,-10.821119 l 6.49646,61.911534 -58.88312,76.77493 -62.411857,-83.127339 z"
     id="path9973"
     style="fill:#000000;fill-rule:evenodd;stroke:#000000;stroke-width:0.90572101px" />
  <path
     d="m 310.75342,241.2159 -96.76839,-20.10906 c 0,0 -88.77671,-83.85884 -93.71728,-103.16249 -4.94057,-19.303648 -10.28859,-32.893521 0.11559,-57.994329 10.40418,-25.100808 46.80746,-36.287682 46.80746,-36.287682 0,0 18.89619,0.773204 4.81548,-3.102305 -14.08071,-3.875509 2.61147,-4.408039 2.61147,-4.408039 0,0 -3.1023,-4.815488 6.16292,2.162326 9.26522,6.977814 11.14518,28.934623 21.39207,54.359492 10.2469,25.424868 24.49438,59.174977 42.61738,78.844377 18.12299,19.66941 98.69005,49.53452 98.69005,49.53452 l 39.2649,29.21699 -71.99165,10.9462 z"
     id="path9213"
     style="fill:#808080;fill-rule:evenodd;stroke:#000000;stroke-width:0.90572101px" />
  <path
     d="M 59.955433,306.56809 51.538175,262.762 c 0,0 -1.499024,-38.61262 -0.241684,-50.07581 -2.183357,-10.03938 -1.42125,-15.2624 -1.42125,-15.2624 0,0 -1.353724,-12.25526 0.283859,-16.47949 l -5.289645,-22.49398 c -0.06557,-4.50447 -3.975864,-8.22498 -2.395581,-15.11683 -1.672607,-6.53517 -7.649973,-11.38799 -7.649973,-11.38799 0,0 -10.571755,-14.00773 -8.309929,-21.54986 2.260725,-7.5428 13.701436,-17.434178 24.19209,-20.119154 10.490663,-2.684977 43.996278,2.667037 68.938468,1.85449 24.94197,-0.813416 29.23747,5.051389 37.15902,14.165324 7.92177,9.11482 30.45595,53.486 41.97644,60.28581 11.5216,6.80047 14.50532,13.001 50.71448,34.3736 36.20921,21.37261 60.81679,19.25269 60.81679,19.25269 l 19.05408,3.47959 16.99331,-15.49067 c 0,0 -56.13244,-0.95393 -68.01485,-14.6253 -11.88266,-13.67222 -56.42801,-62.15822 -56.42801,-62.15822 0,0 -9.95606,-22.52066 -15.61603,-39.177644 -5.66082,-16.65674 -2.75732,-27.149138 -2.75732,-27.149138 0,0 12.27059,26.106412 16.92782,38.841872 6.49647,22.05141 14.41524,34.21204 37.68116,54.4219 5.91432,1.27141 49.70287,18.58937 72.61629,31.68687 22.34574,5.42222 25.4124,12.85992 69.436,21.09112 32.16739,0.12335 48.71713,1.6972 48.71713,1.6972 0,0 24.82959,1.48718 25.62759,32.19871 -4.4955,20.64822 -18.25131,26.95497 -11.69424,25.27676 l -16.01681,13.8486 -66.43579,40.67933 -84.59421,18.86591 -79.17454,-14.55416 -64.67031,-1.55389 -80.378606,8.03769 -11.628491,-29.05684 z"
     id="path6934"
     style="fill:#808080;fill-rule:evenodd;stroke:#000000;stroke-width:0.90572101px" />
  <path
     d="M 80.25543,365.46006 58.533167,318.82611 57.118002,294.17839 c 0,0 32.137069,12.97874 37.500542,12.69328 5.364356,-0.28562 42.852966,10.2361 42.852966,10.2361 0,0 30.49767,-6.17414 38.03254,-6.47211 7.536,-0.29734 28.86032,-1.94899 38.71008,0.42336 9.84955,2.37155 47.23281,16.72631 53.62843,18.3513 6.3965,1.62481 44.22914,4.99057 57.36553,1.08527 13.13618,-3.90622 66.97462,-16.59829 70.9143,-20.32445 3.93859,-3.72673 2.2534,-8.18878 15.86342,-18.74008 13.61004,-10.55131 32.71424,-20.87737 41.86312,-29.74371 9.1482,-8.86525 18.78265,-22.20507 20.82356,-22.72742 2.04092,-0.52235 3.04969,-2.95514 4.9844,0.35571 1.93465,3.31088 6.76654,22.18989 6.08023,36.50145 -0.68721,14.31181 -30.48223,31.72419 -41.55323,39.45105 -11.07101,7.72686 -75.16099,37.72186 -76.43007,39.13393 -0.0801,0.0888 -1.71477,0.74463 -2.41314,0.97478 -0.6986,0.22929 -0.8479,-2.43252 -1.79751,-2.14651 -0.95069,0.28539 -8.45397,2.58072 -9.78863,2.94753 -1.33445,0.36772 -0.5743,2.70209 -2.0435,3.09495 -1.46828,0.39262 -17.49645,4.49486 -19.10883,4.89071 -1.61152,0.39562 -0.32852,-1.98485 -1.87886,-1.61333 -1.54948,0.37133 -6.45304,0.99999 -7.90211,1.33623 -1.4497,0.33738 0.45916,3.27343 -0.84953,3.56632 -1.30984,0.29224 -11.22359,1.6076 -11.87787,1.7068 -0.65431,0.0992 -3.80092,0.37075 -4.70577,0.40786 -0.90484,0.0371 -0.75484,-2.13474 -1.76265,-2.12735 -1.00872,0.008 -8.0109,-0.95919 -9.1816,-1.00736 -1.17156,-0.048 -0.87177,2.96807 -2.10261,2.89319 -1.2308,-0.0749 -14.23313,-1.31502 -15.5565,-1.48492 -1.3234,-0.16989 0.43002,-2.80912 -0.88009,-3.00022 -1.30921,-0.19127 -7.91547,-1.06491 -9.19713,-1.27636 -1.28166,-0.21138 -0.31183,2.69756 -1.55075,2.46679 -1.23892,-0.23077 -9.25649,-2.0306 -10.28021,-2.31177 -6.1957,-11.46286 -7.22872,-13.37306 -7.22872,-13.37306 0,0 -40.58704,-16.25355 -43.89681,-14.31821 -3.31087,1.93472 -14.1326,8.50955 -14.1326,8.50955 l -8.80573,1.71049 1.56706,6.12279 -6.80908,15.87863 c 0,0 -0.20708,0.0128 -0.59753,0.0361 -0.39022,0.0242 -0.96469,0.059 -1.6975,0.1035 -0.7339,0.0439 -1.62678,0.0985 -2.65626,0.16006 -1.03015,0.0626 -2.19513,0.13174 -3.4732,0.20828 -1.27807,0.0765 -2.66857,0.15945 -4.14845,0.24747 -1.47878,0.0887 -3.04717,0.18154 -4.68123,0.27719 -1.63295,0.0963 -3.33221,0.19656 -5.07234,0.2979 -1.73989,0.10219 -1.12892,-3.15064 -2.92922,-3.04703 -1.80007,0.10453 -8.79913,0.21304 -10.61063,0.31672 -1.8126,0.10305 1.29148,3.11365 -0.48556,3.21319 -1.77727,0.0987 -5.64754,0.63674 -7.34224,0.72924 -1.69491,0.0917 -3.33648,0.17986 -4.90208,0.26175 -1.56558,0.0819 -3.05498,0.15831 -4.44337,0.2276 -1.38839,0.0692 -0.40232,-2.89066 -1.56672,-2.83755 -1.16442,0.053 -6.19099,0.40554 -7.08377,0.43866 -0.89366,0.0333 0.071,2.76882 -0.50379,2.78036 -2.29972,0.0445 -5.51953,-0.32067 -9.05529,-0.89382 -3.53664,-0.57294 -1.8004,-0.22545 -5.36547,-1.01176 -0.891854,-0.19708 -0.311205,-2.03418 -0.765279,-2.03672 -0.4543,-0.003 -2.957763,-0.44809 -3.264519,-0.42658 -0.306988,0.0206 -0.426625,2.47546 -1.02365,2.3272 C 91.516441,369.02513 80.25543,365.4601 80.25543,365.4601 z"
     id="path7694"
     style="fill:#000000;fill-rule:evenodd;stroke:#000000;stroke-width:0.90572101px" />
  <path
     d="m 322.25151,249.78748 c -2.60165,-4.81364 18.71099,-49.99481 14.47981,-58.50133 -4.23204,-8.50626 -68.67614,36.75487 -76.91386,31.3297 -8.23882,-5.42586 -3.50171,-21.70722 -0.33327,-30.73701 3.16823,-9.03064 15.18704,-18.27062 11.92716,-25.65608 -3.25965,-7.38455 -8.56695,-6.7115 -13.23083,-6.20218 -4.66499,0.50867 -56.94076,34.43662 -56.94076,34.43662 0,0 -27.56558,20.75348 -33.26251,9.19755 -5.69781,-11.55574 5.02049,-23.20309 5.02049,-23.20309 0,0 50.36222,-30.69797 53.05277,-38.92106 2.6899,-8.22201 2.80869,-15.78689 2.80869,-15.78689"
     id="path13804"
     style="fill:none;stroke:#000000;stroke-width:7.3363409;stroke-miterlimit:4" />
  <path
     d="m 324.0155,248.65074 c 41.92915,-42.23799 42.88625,-43.85354 42.88625,-43.85354 0,0 1.38852,-10.62915 -5.03959,-8.98394 -6.42813,1.64522 -64.62356,41.88248 -69.28767,42.39091 -4.66477,0.50955 -7.07127,1.80982 -5.81659,-3.99083 1.25555,-5.8009 19.80213,-56.43802 13.19458,-58.17147 -6.60842,-1.73323 -26.71537,-0.0117 -48.84006,15.2394 -22.12447,15.25198 -32.94496,37.19929 -29.65858,20.60485 3.28724,-16.59467 21.07255,-59.50341 21.07255,-59.50341 0,0 -83.08958,20.58063 -87.14106,15.45368 -4.0526,-5.1276 51.30021,-64.50054 46.87388,-79.120986"
     id="path13806"
     style="fill:none;stroke:#000000;stroke-width:7.87977266;stroke-miterlimit:4" />
  <path
     d="m 225.93426,123.06773 c -1.94366,-2.24278 -79.5921,12.83628 -82.55352,1.26552 -2.96165,-11.57168 53.66515,-44.557351 53.66515,-44.557351"
     id="path14570"
     style="fill:none;stroke:#000000;stroke-width:7.3363409;stroke-miterlimit:4" />
  <path
     d="m 202.02396,77.816519 c 0,0 -17.20705,2.349025 -23.30619,5.279687 -6.09888,2.931532 -14.39493,16.013916 -13.07872,21.156574 1.31621,5.14266 4.41125,11.88408 8.11891,12.99008 3.70855,1.10578 15.1147,-2.4988 15.7271,-8.13507 0.61175,-5.63519 10.37359,-15.668108 12.10681,-22.276531 1.73346,-6.607574 9.86405,-20.332876 14.49827,-26.313193 4.63314,-5.981003 11.52497,-11.169489 16.6984,-7.01402 5.17257,4.155671 14.98023,2.330796 15.99709,11.659012 1.018,9.328899 8.12003,12.990736 -1.04446,14.650999 -9.16429,1.661148 -8.2229,-2.68967 -17.40222,-3.764912 -9.17934,-1.075255 -18.17922,1.228171 -23.65087,1.258934 -5.47103,0.02967 -10.26963,5.367709 -4.66412,0.50844 z"
     id="path15338"
     style="fill:none;stroke:#000000;stroke-width:7.3363409;stroke-miterlimit:4" />
  <path
     d="m 210.36585,72.942207 c 0.0148,2.735497 -7.74432,-3.497451 -7.74432,-3.497451 l 4.58752,-14.188166 10.89774,-8.268693 4.00589,-3.08021"
     id="path15340"
     style="fill:none;stroke:#000000;stroke-width:7.3363409;stroke-miterlimit:4" />
  <path
     d="m 197.85344,80.253573 19.68994,10.029535 5.39935,15.741062"
     id="path17622"
     style="fill:none;stroke:#000000;stroke-width:7.3363409;stroke-miterlimit:4" />
  <g
     transform="matrix(0.21489646,0,0,0.21489646,42.528325,398.2627)"
     id="g3848"
     style="fill:#000000">
    <path
       d="m 414.28571,396.64789 a 70,70 0 1 1 -140,0 70,70 0 1 1 140,0 z"
       transform="matrix(0.69695424,0,0,0.69695424,107.01816,136.7659)"
       id="path3812"
       style="fill:#000000;fill-opacity:1;stroke:none" />
    <path
       d="m 357.125,75.21875 c -88.70625,0 -167.24803,33.72297 -215.5,85.5625 l 40,61.65625 c 35.1157,-46.92077 100.54558,-78.46875 175.5,-78.46875 69.39712,0 130.63979,27.06257 167.21875,68.3125 L 565.8125,153.75 C 517.15423,105.90176 441.76173,75.21875 357.125,75.21875 z"
       id="path3814"
       style="fill:#000000;fill-opacity:1;stroke:none" />
    <path
       d="m 350,229.5 c -50.45667,0 -96.51719,18.78113 -131.5625,49.6875 l 33.78125,52.09375 C 278.62505,309.04597 312.73394,295.625 350,295.625 c 34.98396,0 67.17684,11.81479 92.84375,31.65625 l 35.84375,-50.625 C 444.0107,247.23634 399.08938,229.5 350,229.5 z"
       id="path3822"
       style="fill:#000000;fill-opacity:1;stroke:none" />
    <path
       d="m 372.15625,138.25 c -116.58406,0 -221.30767,45.12743 -293.4375,116.8125 l 37.90625,58.40625 c 53.30072,-61.70409 147.01391,-102.6875 253.78125,-102.6875 105.94617,0 199.07205,40.33953 252.59375,101.25 L 664.3125,253.75 C 592.20544,182.82091 488.03965,138.25 372.15625,138.25 z"
       transform="translate(-16.162441,-216.17265)"
       id="path3824"
       style="fill:#000000;fill-opacity:1;stroke:none" />
  </g>
  <g
     transform="matrix(2.1095148,0,0,2.1095148,201.91452,381.14178)"
     id="g3264"
     style="display:inline">
    <g
       transform="translate(-11.494103,-8.0640801)"
       id="layer2">
      <path
         d="m 12.88322,35.515489 64,0"
         id="path2999"
         style="fill:none;stroke:#000000;stroke-width:2.77823424;stroke-linecap:butt;stroke-linejoin:miter;stroke-miterlimit:4;stroke-opacity:1;stroke-dasharray:none" />
      <path
         d="m 47.4368,35.560129 0,-9"
         id="path3001"
         style="fill:none;stroke:#000000;stroke-width:3.7559104;stroke-linecap:butt;stroke-linejoin:miter;stroke-miterlimit:4;stroke-opacity:1;stroke-dasharray:none" />
      <rect
         width="20"
         height="17"
         x="37.5975"
         y="9.9172783"
         id="rect3771"
         style="fill:none;stroke:#000000;stroke-width:3.70639634;stroke-miterlimit:4;stroke-opacity:1;stroke-dasharray:none" />
      <path
         d="m 28.97251,44.917269 0,-9"
         id="path3001-1"
         style="fill:none;stroke:#000000;stroke-width:3.7559104;stroke-linecap:butt;stroke-linejoin:miter;stroke-miterlimit:4;stroke-opacity:1;stroke-dasharray:none" />
      <path
         d="m 66.38322,45.006559 0,-9"
         id="path3001-1-7"
         style="fill:none;stroke:#000000;stroke-width:3.7559104;stroke-linecap:butt;stroke-linejoin:miter;stroke-miterlimit:4;stroke-opacity:1;stroke-dasharray:none" />
      <rect
         width="20"
         height="17"
         x="18.410534"
         y="44.568775"
         id="rect3771-4"
         style="fill:none;stroke:#000000;stroke-width:3.70639634;stroke-miterlimit:4;stroke-opacity:1;stroke-dasharray:none" />
      <rect
         width="20"
         height="17"
         x="55.659908"
         y="44.316242"
         id="rect3771-0"
         style="fill:none;stroke:#000000;stroke-width:3.70639634;stroke-miterlimit:4;stroke-opacity:1;stroke-dasharray:none" />
    </g>
  </g>
  <g
     transform="matrix(0.39925307,0,0,0.39925307,236.58368,159.85609)"
     id="g3913">
    <path
       d="M 476.82958,571.61642 H 368.078 c -2.29591,0 -4.15802,1.87078 -4.15802,4.17753 v 174.71553 c 0,2.30675 1.86211,4.17753 4.15802,4.17753 h 217.50641 c 2.29592,0 4.15802,-1.87078 4.15802,-4.17753 V 575.79395 c 0,-2.30675 -1.8621,-4.17753 -4.15802,-4.17753 H 476.82958 z"
       id="path101"
       style="fill:#7f7f7f;fill-rule:evenodd" />
    <path
       d="m 391.91232,802.27853 -33.57649,23.81583 H 597.23641 L 563.62305,802.27853 H 391.91232 z"
       id="path105"
       style="fill:#7f7f7f;fill-rule:evenodd" />
    <path
       d="m 477.52042,591.32087 c 40.25815,0 72.93232,32.65566 72.93232,72.89204 0,40.23638 -32.67308,72.89204 -72.93232,72.89204 -40.25925,0 -72.93125,-32.65566 -72.93125,-72.89204 0,-40.23747 32.67309,-72.89204 72.93125,-72.89204"
       id="path109"
       style="fill:#7f7f7f;fill-rule:evenodd" />
    <path
       d="m 477.52042,601.43175 c 34.6534,0 62.77912,28.12566 62.77912,62.78007 0,34.65441 -28.12572,62.78008 -62.77912,62.78008 -34.65558,0 -62.7813,-28.12567 -62.7813,-62.78008 0,-34.65441 28.12572,-62.78007 62.7813,-62.78007"
       id="path111"
       style="fill:#7f7f7f;fill-rule:evenodd" />
    <path
       d="m 466.83472,601.24955 c 5.85636,4.25562 11.16613,9.48729 16.24165,16.00736 5.0766,6.32486 9.80073,13.86003 13.74293,22.76168 3.78712,8.90165 7.14585,20.18489 9.0188,30.68727 1.67991,10.42431 2.14733,22.48839 1.5617,31.54621 -0.62468,8.97974 -2.22542,16.24161 -4.95839,22.09796 l 12.6107,-6.0906 c 2.10829,-10.30718 3.24161,-19.95063 3.39778,-29.08654 0.0759,-9.09686 -0.70385,-17.25671 -2.4998,-25.68986 -1.99117,-8.74548 -4.91935,-17.64713 -8.31604,-25.49464 -3.43573,-7.76943 -7.22285,-14.13333 -11.94698,-20.73148 -4.84234,-6.67624 -10.42433,-13.0011 -16.90537,-19.13075 -3.98124,1.01511 -7.96357,2.06925 -11.94698,3.12339 z"
       id="path113"
       style="fill:#7f7f7f;fill-rule:evenodd" />
    <path
       d="m 455.27925,603.08454 c -3.00627,6.55911 -5.1536,13.70386 -6.28691,21.90275 -1.20924,8.12081 -1.87404,16.82725 -0.78085,26.58783 1.13223,9.72154 3.47477,21.00478 7.1838,31.11674 3.51382,9.99484 9.17497,20.57531 14.13336,28.26665 4.91934,7.57422 9.91677,13.07918 15.14846,16.82725 l -13.97827,0.89797 c -6.98751,-7.96463 -12.57166,-15.81214 -17.21663,-23.6987 -4.72413,-8.00367 -7.80848,-15.26555 -10.46337,-23.58157 -2.6538,-8.51122 -4.45083,-17.84234 -5.23168,-26.31453 -0.93593,-8.51123 -0.70168,-15.73406 0.23534,-23.93295 0.93593,-8.27698 2.6538,-16.39778 5.30977,-24.98709 3.98124,-1.01511 7.96465,-2.03021 11.94698,-3.08435 z"
       id="path115"
       style="fill:#7f7f7f;fill-rule:evenodd" />
    <path
       d="m 416.93959,684.0193 c 6.83243,2.14733 14.28953,3.3186 22.52748,3.51381 8.19891,0.15617 16.86632,-0.2733 26.47076,-2.49871 9.56431,-2.34254 20.4181,-6.20773 30.02362,-10.97089 9.37018,-4.84125 19.326,-11.67366 26.27447,-17.49097 6.83351,-5.89648 11.71381,-11.40036 14.79816,-17.13959 l 2.65597,13.78195 c -7.10681,7.80847 -14.09432,14.36758 -21.39633,19.98967 -7.33998,5.58306 -14.21144,9.56538 -22.13814,13.31344 -8.04274,3.55285 -17.21771,6.52007 -25.41662,8.43314 -8.23795,1.75691 -15.65709,2.61584 -23.77683,2.73297 -8.31604,0 -16.59411,-0.58564 -25.45674,-2.18637 -1.52157,-3.82615 -3.04423,-7.6523 -4.5658,-11.47845 z"
       id="path117"
       style="fill:#7f7f7f;fill-rule:evenodd" />
    <path
       d="m 473.47193,555.37481 h -126.2621 c -2.67332,0 -4.84126,2.16793 -4.84126,4.84125 v 201.6927 c 0,2.67331 2.16794,4.84125 4.84126,4.84125 h 252.52638 c 2.67332,0 4.84234,-2.16794 4.84234,-4.84125 v -201.6927 c 0,-2.67332 -2.16902,-4.84125 -4.84234,-4.84125 H 473.47193 z"
       id="path125"
       style="fill:#000000;fill-rule:evenodd" />
    <path
       d="M 473.00451,568.72837 H 364.25076 c -2.297,0 -4.15802,1.87078 -4.15802,4.17753 v 174.75241 c 0,2.30783 1.86102,4.17861 4.15802,4.17861 h 217.50533 c 2.29591,0 4.15802,-1.87078 4.15802,-4.17861 V 572.90482 c 0,-2.30675 -1.86211,-4.17753 -4.15802,-4.17753 H 473.00451 z"
       id="path127"
       style="fill:#ffffff;fill-rule:evenodd" />
    <path
       d="m 422.59966,762.06493 v 15.89023 H 378.7561 v 19.59925 l -37.32455,26.58783 v 21.47328 H 606.4515 v -21.47328 l -37.32455,-26.58783 v -19.59925 h -43.8826 V 762.06493 H 422.59966 z"
       id="path129"
       style="fill:#000000;fill-rule:evenodd" />
    <path
       d="m 388.08616,799.3894 -33.61553,23.81582 H 593.37338 L 559.79581,799.3894 H 388.08616 z"
       id="path131"
       style="fill:#ffffff;fill-rule:evenodd" />
    <path
       d="m 473.74523,588.41764 c 40.23755,0 72.89328,32.67301 72.89328,72.93108 0,40.25807 -32.65681,72.93108 -72.89328,72.93108 -40.23647,0 -72.8922,-32.67301 -72.8922,-72.93108 0,-40.25807 32.65573,-72.93108 72.8922,-72.93108"
       id="path135"
       style="fill:#000000;fill-rule:evenodd" />
    <path
       d="m 473.61617,598.56864 c 34.65341,0 62.77913,28.12567 62.77913,62.78008 0,34.65441 -28.12572,62.78007 -62.77913,62.78007 -34.65557,0 -62.78129,-28.12566 -62.78129,-62.78007 0,-34.65441 28.12572,-62.78008 62.78129,-62.78008"
       id="path137"
       style="fill:#ffffff;fill-rule:evenodd" />
    <path
       d="m 462.97061,598.36042 c 5.85636,4.25561 11.16504,9.48729 16.24164,16.00736 5.0766,6.32485 9.79965,13.86002 13.74294,22.76168 3.78711,8.90165 7.14584,20.18488 9.0188,30.68727 1.67882,10.42431 2.14624,22.48839 1.56169,31.54621 -0.6648,8.97974 -2.14733,16.24161 -4.92043,22.09796 l 12.61179,-6.0906 c 2.02912,-10.30718 3.20039,-19.95064 3.35765,-29.08654 0.15725,-9.09687 -0.66372,-17.25672 -2.45968,-25.68986 -1.91416,-8.74548 -4.8803,-17.64714 -8.31603,-25.49464 -3.43573,-7.76943 -7.18489,-14.13333 -11.98711,-20.73148 -4.95839,-6.67624 -10.34624,-13.0011 -16.90537,-19.13075 -3.98124,1.0151 -7.96357,2.06925 -11.94589,3.12339 z"
       id="path139"
       style="fill:#000000;fill-rule:evenodd" />
    <path
       d="m 451.45309,600.19541 c -3.00626,6.55911 -5.15468,13.70386 -6.28583,21.90275 -1.2884,8.1208 -1.91308,16.82724 -0.81989,26.58783 1.09319,9.72154 3.55178,21.00477 7.22285,31.11674 3.55178,9.99484 9.0958,20.57531 14.09431,28.26665 4.95731,7.57421 9.79857,13.07918 15.14738,16.82725 l -13.97719,0.89797 c -6.98859,-7.96464 -12.57166,-15.81215 -17.21771,-23.6987 -4.72304,-8.00368 -7.8074,-15.26555 -10.46337,-23.58157 -2.6538,-8.35506 -4.45083,-17.95947 -5.2306,-26.27549 -0.89797,-8.47219 -0.82097,-15.81214 0.23426,-23.97199 0.89798,-8.27698 2.73297,-16.39778 5.34881,-24.9871 3.98124,-1.0151 7.96357,-2.0302 11.94698,-3.08434 z"
       id="path141"
       style="fill:#000000;fill-rule:evenodd" />
    <path
       d="m 413.07439,681.13017 c 6.83134,2.14733 14.28953,3.3186 22.52639,3.51381 8.2,0.15617 16.86633,-0.31234 26.47077,-2.45967 9.44826,-2.45967 20.45714,-6.12965 30.02362,-11.00994 9.44935,-4.84125 19.326,-11.67366 26.31459,-17.49096 6.83351,-5.8954 11.71381,-11.40036 14.79816,-17.13959 l 2.61584,13.78195 c -7.02763,7.80846 -14.09431,14.36758 -21.3562,19.98967 -7.34106,5.58306 -14.21144,9.56537 -22.13705,13.31344 -8.08287,3.55285 -17.2188,6.52007 -25.45675,8.43314 -8.27699,1.75691 -15.53888,2.61584 -23.73887,2.73297 -8.27591,0 -16.67003,-0.58564 -25.4947,-2.18638 -1.52049,-3.82614 -3.04423,-7.65229 -4.5658,-11.47844 z"
       id="path143"
       style="fill:#000000;fill-rule:evenodd" />
  </g>
</svg>
